HIERARCHY
ROOT Hips
{
	OFFSET 0.000000 0.000000 0.000000
	CHANNELS 6 Xposition Yposition Zposition Zrotation Xrotation Yrotation
	JOINT Spine
	{
		OFFSET 0.000000 -0.000000 0.081436
		CHANNELS 6 Xposition Yposition Zposition Zrotation Xrotation Yrotation
		JOINT Spine1
		{
			OFFSET 0.000000 -0.000000 0.206037
			CHANNELS 6 Xposition Yposition Zposition Zrotation Xrotation Yrotation
			JOINT Neck
			{
				OFFSET 0.000000 -0.000000 0.206037
				CHANNELS 6 Xposition Yposition Zposition Zrotation Xrotation Yrotation
				JOINT Head
				{
					OFFSET 0.000000 -0.000000 0.109243
					CHANNELS 6 Xposition Yposition Zposition Zrotation Xrotation Yrotation
					End Site
					{
						OFFSET 0.000000 -0.000000 0.248279
					}
				}
			}
			JOINT LeftShoulder
			{
				OFFSET 0.039631 0.002820 0.186820
				CHANNELS 6 Xposition Yposition Zposition Zrotation Xrotation Yrotation
				JOINT LeftArm
				{
					OFFSET 0.111855 0.000000 0.000000
					CHANNELS 6 Xposition Yposition Zposition Zrotation Xrotation Yrotation
					JOINT LeftForeArm
					{
						OFFSET 0.340751 0.000000 0.000000
						CHANNELS 6 Xposition Yposition Zposition Zrotation Xrotation Yrotation
						JOINT LeftHand
						{
							OFFSET 0.213779 0.000000 0.000000
							CHANNELS 6 Xposition Yposition Zposition Zrotation Xrotation Yrotation
							End Site
							{
								OFFSET 0.148968 0.000000 0.000000
							}
						}
					}
				}
			}
			JOINT RightShoulder
			{
				OFFSET -0.039679 0.002820 0.186820
				CHANNELS 6 Xposition Yposition Zposition Zrotation Xrotation Yrotation
				JOINT RightArm
				{
					OFFSET -0.111855 0.000000 0.000000
					CHANNELS 6 Xposition Yposition Zposition Zrotation Xrotation Yrotation
					JOINT RightForeArm
					{
						OFFSET -0.340751 0.000000 0.000000
						CHANNELS 6 Xposition Yposition Zposition Zrotation Xrotation Yrotation
						JOINT RightHand
						{
							OFFSET -0.213779 0.000000 0.000000
							CHANNELS 6 Xposition Yposition Zposition Zrotation Xrotation Yrotation
							End Site
							{
								OFFSET -0.148968 0.000000 0.000000
							}
						}
					}
				}
			}
		}
	}
	JOINT LeftUpLeg
	{
		OFFSET 0.099312 0.000000 0.000000
		CHANNELS 6 Xposition Yposition Zposition Zrotation Xrotation Yrotation
		JOINT LeftLeg
		{
			OFFSET 0.000000 0.000000 -0.476468
			CHANNELS 6 Xposition Yposition Zposition Zrotation Xrotation Yrotation
			JOINT LeftFoot
			{
				OFFSET 0.000000 0.000000 -0.378939
				CHANNELS 6 Xposition Yposition Zposition Zrotation Xrotation Yrotation
				JOINT LeftToeBase
				{
					OFFSET 0.000000 -0.148968 -0.064553
					CHANNELS 6 Xposition Yposition Zposition Zrotation Xrotation Yrotation
					End Site
					{
						OFFSET 0.000000 -0.039725 -0.000000
					}
				}
			}
		}
	}
	JOINT RightUpLeg
	{
		OFFSET -0.099312 0.000000 0.000000
		CHANNELS 6 Xposition Yposition Zposition Zrotation Xrotation Yrotation
		JOINT RightLeg
		{
			OFFSET 0.000000 0.000000 -0.476468
			CHANNELS 6 Xposition Yposition Zposition Zrotation Xrotation Yrotation
			JOINT RightFoot
			{
				OFFSET 0.000000 0.000000 -0.378939
				CHANNELS 6 Xposition Yposition Zposition Zrotation Xrotation Yrotation
				JOINT RightToeBase
				{
					OFFSET 0.000000 -0.148968 -0.064553
					CHANNELS 6 Xposition Yposition Zposition Zrotation Xrotation Yrotation
					End Site
					{
						OFFSET 0.000000 -0.039725 -0.000000
					}
				}
			}
		}
	}
}
MOTION
Frames: 9
Frame Time: 0.041667
1.110161 0.267725 1.004532 -7.707318 2.048620 -4.238013 -0.000000 -0.000000 0.081436 0.118898 -5.592359 2.437258 0.000000 -0.000000 0.206037 4.616157 -5.879074 -6.179509 -0.000000 -0.000000 0.206037 1.081215 19.297911 -6.353451 -0.000000 0.000000 0.109243 20.302102 1.973382 -3.439116 0.039631 0.002820 0.186820 15.191644 15.501843 -4.996488 0.111855 -0.000000 -0.000000 -23.998645 20.222848 72.428487 0.340751 -0.000000 0.000000 -4.024312 -0.123790 3.523173 0.213779 0.000000 -0.000000 2.669718 6.391082 1.422859 -0.039679 0.002820 0.186820 -0.634357 9.485831 5.225479 -0.111855 -0.000000 -0.000000 34.938450 7.239620 -69.596274 -0.340751 0.000000 -0.000000 24.092357 0.993129 4.651361 -0.213779 0.000000 -0.000000 -2.016191 -4.396032 1.264227 0.099312 0.000000 -0.000000 0.112660 -2.943810 -3.485229 -0.000000 0.000000 -0.476468 5.315694 1.117322 0.677157 0.000000 0.000000 -0.378939 6.137221 0.532211 2.757912 -0.000000 -0.148968 -0.064553 0.000000 -0.000000 -0.000000 -0.099312 -0.000000 0.000000 3.935750 4.900893 4.268296 0.000000 0.000000 -0.476468 4.293419 25.491477 1.641006 0.000000 0.000000 -0.378939 -10.045000 -10.928382 -8.884176 -0.000000 -0.148968 -0.064553 0.000000 -0.000004 -0.000000 
1.111490 0.256410 1.003077 -8.573012 2.014834 -3.842863 -0.000000 -0.000000 0.081436 0.136783 -5.644180 2.777526 -0.000000 -0.000000 0.206037 4.237286 -5.858934 -6.766647 -0.000000 -0.000000 0.206037 1.032096 18.542823 -6.316480 -0.000000 -0.000000 0.109243 20.375651 2.387491 -3.904277 0.039631 0.002820 0.186820 15.586270 15.628998 -5.126172 0.111855 0.000000 0.000000 -24.116191 21.099861 72.868044 0.340751 -0.000000 0.000000 -4.194704 -0.138060 3.769374 0.213779 -0.000000 0.000000 2.631522 6.557056 0.784671 -0.039679 0.002820 0.186820 -0.312459 9.041235 5.462579 -0.111855 0.000000 0.000000 33.797907 8.265792 -70.498665 -0.340751 -0.000000 0.000000 23.829203 0.946585 4.483938 -0.213779 -0.000000 0.000000 -1.945298 -3.968818 1.134717 0.099312 0.000000 -0.000000 -0.150417 -2.604645 -3.703222 -0.000000 0.000000 -0.476468 4.895306 2.643520 0.479087 -0.000000 0.000000 -0.378939 9.067086 -1.689836 3.947338 -0.000000 -0.148968 -0.064553 -0.000001 0.000001 -0.000000 -0.099312 0.000000 -0.000000 4.004972 5.067509 4.249424 -0.000000 0.000000 -0.476468 4.289881 26.103719 1.834298 -0.000000 0.000000 -0.378939 -9.137623 -10.490283 -9.322646 -0.000000 -0.148968 -0.064553 -0.000001 -0.000003 -0.000001 
1.112071 0.244921 1.001478 -9.289469 1.719339 -3.342899 0.000000 0.000000 0.081436 0.154719 -5.715158 3.102263 0.000000 -0.000000 0.206037 4.062889 -5.349393 -7.396130 0.000000 -0.000000 0.206037 0.988459 18.091826 -6.202970 0.000000 -0.000000 0.109243 20.042400 2.096577 -4.314837 0.039631 0.002820 0.186820 15.238171 15.564348 -4.939241 0.111855 -0.000000 0.000000 -24.448339 21.903611 73.398558 0.340751 -0.000000 0.000000 -4.691218 -0.141710 3.459268 0.213779 0.000000 0.000000 3.188799 5.283149 0.998290 -0.039679 0.002820 0.186820 -1.144185 8.793090 5.626926 -0.111855 0.000000 -0.000000 33.607980 8.906426 -70.863629 -0.340751 -0.000000 -0.000000 23.357987 0.870526 4.209606 -0.213779 -0.000000 0.000000 -1.667924 -3.619448 1.469400 0.099312 0.000000 0.000000 -0.145728 -1.783158 -4.089739 -0.000000 0.000000 -0.476468 4.143899 2.953161 0.443688 -0.000000 0.000000 -0.378939 11.253340 -2.326505 4.044190 -0.000000 -0.148968 -0.064553 -0.000000 0.000001 -0.000000 -0.099312 0.000000 0.000000 3.994971 5.461780 4.029842 0.000000 0.000000 -0.476468 5.634535 26.989209 1.421928 -0.000000 0.000000 -0.378939 -9.564835 -10.276816 -9.618286 -0.000000 -0.148968 -0.064553 -0.000000 -0.000002 -0.000001 
1.112028 0.233620 1.000171 -9.999347 1.271979 -2.997638 -0.000000 -0.000000 0.081436 0.172154 -5.345454 3.690113 -0.000000 -0.000000 0.206037 3.488488 -5.223972 -8.084804 0.000000 0.000000 0.206037 0.930781 18.088981 -5.842612 0.000000 0.000000 0.109243 20.192640 1.526373 -4.878854 0.039631 0.002820 0.186820 15.219045 15.500252 -4.533401 0.111855 0.000000 0.000000 -26.212010 23.031724 74.455557 0.340751 -0.000000 -0.000000 -4.966613 -0.116222 2.679619 0.213779 -0.000000 0.000000 2.793033 2.670450 0.999793 -0.039679 0.002820 0.186820 -1.554037 8.895054 5.773468 -0.111855 -0.000000 0.000000 33.257513 9.276012 -71.150388 -0.340751 -0.000000 0.000000 22.745975 0.774349 3.848294 -0.213779 0.000000 0.000000 -1.749411 -3.262260 1.646997 0.099312 0.000000 0.000000 0.069672 -0.526389 -4.488449 -0.000000 0.000000 -0.476468 4.912260 2.991378 0.793384 0.000000 0.000000 -0.378939 10.525975 -3.386196 3.569724 -0.000000 -0.148968 -0.064553 0.000000 0.000001 -0.000000 -0.099312 -0.000000 0.000000 3.790735 5.897103 3.880673 0.000000 0.000000 -0.476468 4.901669 27.867389 1.891289 -0.000000 0.000000 -0.378939 -8.236601 -9.863874 -9.387429 0.000000 -0.148968 -0.064553 -0.000000 0.000001 0.000001 
1.111316 0.223026 1.000116 -10.689938 1.002602 -2.740414 -0.000000 -0.000000 0.081436 0.182109 -5.254430 3.970804 0.000000 -0.000000 0.206037 2.915572 -4.824535 -7.890994 -0.000000 -0.000000 0.206037 0.993491 18.146868 -6.215421 0.000000 0.000000 0.109243 20.568398 1.251215 -4.969096 0.039631 0.002820 0.186820 15.339860 15.285352 -4.388495 0.111855 0.000000 0.000000 -26.374355 23.140218 74.215121 0.340751 0.000000 0.000000 -4.584669 -0.116590 2.912584 0.213779 -0.000000 0.000000 2.182445 2.658109 0.978725 -0.039679 0.002820 0.186820 -1.571276 9.060017 5.312083 -0.111855 -0.000000 -0.000000 32.465870 9.476121 -71.362192 -0.340751 0.000000 0.000000 21.964772 0.708874 3.651638 -0.213779 -0.000000 0.000000 -1.512589 -3.321837 1.089445 0.099312 -0.000000 -0.000000 1.145576 0.503573 -4.835552 0.000000 0.000000 -0.476468 4.774714 3.094269 1.007834 -0.000000 0.000000 -0.378939 9.548324 -4.089841 3.832402 0.000000 -0.148968 -0.064553 -0.000000 -0.000000 -0.000000 -0.099312 -0.000000 -0.000000 3.438524 5.898032 3.774649 -0.000000 0.000000 -0.476468 4.226039 28.952632 2.535654 0.000000 0.000000 -0.378939 -6.817622 -8.926341 -9.298798 0.000000 -0.148968 -0.064553 0.000001 -0.000005 -0.000001 
1.110564 0.213628 1.001200 -11.223558 1.275016 -2.508253 0.000000 0.000000 0.081436 0.210138 -5.355905 4.494248 -0.000000 -0.000000 0.206037 2.610305 -5.193284 -8.357560 0.000000 0.000000 0.206037 0.958232 18.831040 -5.774132 -0.000000 0.000000 0.109243 20.475037 0.738259 -5.257952 0.039631 0.002820 0.186820 14.340935 15.574476 -3.563171 0.111855 0.000000 0.000000 -25.986493 22.883833 73.370411 0.340751 0.000000 0.000000 -4.391586 -0.137016 3.573156 0.213779 -0.000000 0.000000 2.101761 2.276651 0.768421 -0.039679 0.002820 0.186820 -2.262804 9.675308 5.928465 -0.111855 0.000000 -0.000000 31.699403 9.167665 -72.110856 -0.340751 0.000000 -0.000000 20.838188 0.604903 3.288775 -0.213779 0.000000 -0.000000 -1.051368 -2.849679 1.225220 0.099312 0.000000 -0.000000 1.879018 0.969953 -5.111799 -0.000000 0.000000 -0.476468 4.155697 3.368102 0.866568 -0.000000 0.000000 -0.378939 8.504847 -4.913520 3.723071 0.000000 -0.148968 -0.064553 0.000000 -0.000000 -0.000000 -0.099312 0.000000 0.000000 2.889811 5.043914 3.729607 -0.000000 0.000000 -0.476468 3.166960 30.269739 3.417207 0.000000 0.000000 -0.378939 -5.080109 -7.527382 -9.400360 -0.000000 -0.148968 -0.064553 -0.000001 -0.000001 -0.000001 
1.109584 0.205281 1.002278 -11.556965 1.746303 -2.105500 0.000000 -0.000000 0.081436 0.219544 -5.780081 4.350593 0.000000 -0.000000 0.206037 2.131083 -4.811031 -7.780041 0.000000 -0.000000 0.206037 1.001811 18.517845 -6.140199 0.000000 0.000000 0.109243 20.716667 0.920051 -5.277281 0.039631 0.002820 0.186820 13.910806 15.194348 -3.448714 0.111855 0.000000 -0.000000 -26.471843 22.452531 73.162767 0.340751 0.000000 0.000000 -4.515244 -0.125661 3.187352 0.213779 0.000000 0.000000 2.079619 3.411199 1.597318 -0.039679 0.002820 0.186820 -2.530422 9.926980 5.952207 -0.111855 0.000000 0.000000 31.016319 9.060346 -72.902851 -0.340751 0.000000 -0.000000 20.177786 0.571293 3.210013 -0.213779 0.000000 0.000000 -1.328243 -3.347177 1.382479 0.099312 -0.000000 -0.000000 2.447883 1.129874 -5.538113 -0.000000 0.000000 -0.476468 3.902587 3.144125 1.001828 0.000000 0.000000 -0.378939 8.407660 -5.048919 3.622191 -0.000000 -0.148968 -0.064553 0.000000 -0.000001 -0.000000 -0.099312 -0.000000 0.000000 2.127827 3.736894 3.532830 0.000000 0.000000 -0.476468 1.879836 31.751142 4.390726 0.000000 -0.000000 -0.378939 -3.493113 -5.853813 -9.575186 0.000000 -0.148968 -0.064553 0.000000 -0.000005 0.000001 
1.108398 0.197285 1.002687 -11.957984 1.984740 -1.717140 0.000000 0.000000 0.081436 0.204170 -5.960671 3.923972 0.000000 -0.000000 0.206037 1.819642 -4.219034 -6.491152 -0.000000 -0.000000 0.206037 1.188562 18.129943 -7.440117 -0.000000 -0.000000 0.109243 21.029360 1.140287 -4.705597 0.039631 0.002820 0.186820 13.837384 14.588044 -4.022645 0.111855 -0.000000 0.000000 -26.765829 21.241309 72.689933 0.340751 -0.000000 0.000000 -4.380641 -0.129679 3.390271 0.213779 -0.000000 0.000000 2.484312 4.292664 0.598408 -0.039679 0.002820 0.186820 -2.321139 10.194494 5.044538 -0.111855 0.000000 0.000000 30.175253 9.435532 -73.226007 -0.340751 0.000000 -0.000000 20.094859 0.559146 3.155071 -0.213779 -0.000000 0.000000 -1.931247 -3.939636 1.129542 0.099312 0.000000 0.000000 2.956333 1.594675 -5.918410 0.000000 0.000000 -0.476468 3.967019 2.826772 1.098210 -0.000000 0.000000 -0.378939 8.461049 -5.310398 3.909008 -0.000000 -0.148968 -0.064553 0.000000 0.000001 -0.000000 -0.099312 0.000000 -0.000000 1.322107 2.505386 3.359635 0.000000 0.000000 -0.476468 -1.765060 32.947538 6.601028 0.000000 0.000000 -0.378939 -0.917092 -3.986169 -10.301348 -0.000000 -0.148968 -0.064553 0.000001 0.000002 -0.000000 
1.106844 0.189827 1.003044 -12.043828 2.572953 -1.208077 0.000000 -0.000000 0.081436 0.198844 -6.401869 3.558168 0.000000 -0.000000 0.206037 1.525999 -3.785265 -5.595195 0.000000 -0.000000 0.206037 1.342733 17.683841 -8.616586 0.000000 0.000000 0.109243 20.933084 1.471693 -4.059312 0.039631 0.002820 0.186820 12.920041 13.828554 -4.370715 0.111855 -0.000000 -0.000000 -27.365049 20.315643 72.698785 0.340751 -0.000000 0.000000 -4.532284 -0.111752 2.823967 0.213779 -0.000000 0.000000 2.661415 5.273879 0.671035 -0.039679 0.002820 0.186820 -2.592252 10.501247 4.529017 -0.111855 0.000000 0.000000 29.882074 9.995926 -73.693821 -0.340751 0.000000 -0.000000 20.353540 0.588963 3.280161 -0.213779 0.000000 0.000000 -2.502080 -4.553649 0.478537 0.099312 -0.000000 0.000000 3.004765 1.656369 -6.413615 0.000000 0.000000 -0.476468 4.198673 2.472207 1.141226 0.000000 0.000000 -0.378939 8.589133 -5.484744 3.835174 -0.000000 -0.148968 -0.064553 0.000000 0.000001 0.000000 -0.099312 -0.000000 -0.000000 0.266255 0.940643 3.043273 0.000000 0.000000 -0.476468 -3.223932 34.213288 7.584854 0.000000 -0.000000 -0.378939 -0.776189 -2.838413 -11.003220 0.000000 -0.148968 -0.064553 -0.000001 0.000001 0.000001 
